<?xml version="1.0" encoding="UTF-8"?>
<svg id="Layer_2" data-name="Layer 2" xmlns="http://www.w3.org/2000/svg" viewBox="0 0 500 500">
  <defs>
    <style>
      .cls-1 {
        fill: none;
      }

      .cls-1, .cls-2 {
        stroke-width: 0px;
      }

      .cls-2 {
        fill: #fff;
      }
    </style>
  </defs>
  <g id="Layer_1-2" data-name="Layer 1">
    <rect class="cls-1" width="500" height="500"/>
    <g>
      <path class="cls-2" d="m308.41,192l-58.41-104.39-58.41,104.39-61.2,102.78h22.1l63.77-118.04h60.63c13.2,0,21.4,3.14,24.58,9.42,3.18,6.28,1.64,15.22-4.62,26.81-6.44,11.92-15.05,21.23-25.84,27.94-10.79,6.71-23.54,10.06-38.25,10.06h-19.97l-23.66,43.8h69.58l-66.56,117.62h36.47l25.8-47.75h39.85l-25.8,47.75h36.63l64.5-117.62-61.2-102.78Zm-38.33,143.66l22.34-40.89h39.74l-22.22,40.89h-39.86Z"/>
      <path class="cls-2" d="m251.44,223.4c4.16-2.44,7.28-5.57,9.34-9.38,2-3.7,2.46-6.84,1.39-9.42-1.08-2.58-5.02-3.87-11.84-3.87h-10.39l-14.23,26.33h8.94c7.03,0,12.63-1.22,16.79-3.66Z"/>
    </g>
  </g>
</svg>