<?xml version="1.0" encoding="UTF-8"?>
<svg id="Layer_2" data-name="Layer 2" xmlns="http://www.w3.org/2000/svg" viewBox="0 0 780.52 463.02">
  <defs>
    <style>
      .cls-1 {
        fill: none;
      }

      .cls-1, .cls-2 {
        stroke-width: 0px;
      }

      .cls-2 {
        fill: #fff;
      }
    </style>
  </defs>
  <g id="Layer_1-2" data-name="Layer 1">
    <rect class="cls-1" width="780.52" height="463.02"/>
    <g>
      <path class="cls-2" d="m254.22,171.56l-58.41-104.39-58.41,104.39-61.2,102.78h22.1l63.77-118.04h60.63c13.2,0,21.4,3.14,24.58,9.42,3.18,6.28,1.64,15.22-4.62,26.81-6.44,11.92-15.05,21.23-25.84,27.94-10.79,6.71-23.54,10.06-38.25,10.06h-19.97l-23.66,43.8h69.58l-66.56,117.62h36.47l25.8-47.75h39.85l-25.8,47.75h36.63l64.5-117.62-61.2-102.78Zm-38.33,143.66l22.34-40.89h39.74l-22.22,40.89h-39.86Z"/>
      <path class="cls-2" d="m197.26,202.96c4.16-2.44,7.28-5.57,9.34-9.38,2-3.7,2.46-6.84,1.39-9.42-1.08-2.58-5.02-3.87-11.84-3.87h-10.39l-14.23,26.33h8.94c7.03,0,12.63-1.22,16.79-3.66Z"/>
    </g>
    <g>
      <path class="cls-2" d="m376.85,201.39l-16,43.97c-6.57,18.04-17.33,26.57-33.28,26.57s-19.01-8.75-12.61-26.32l16.13-44.32c6.56-18.03,18.64-26.26,32.67-26.26s19.69,8.25,13.1,26.36Zm-30.5-1.42l-17.24,47.36c-2.85,7.82-1.36,11.5,3.88,11.5,5.64,0,9.42-3.43,12.43-11.71l17.2-47.26c2.72-7.47,1.93-11.61-3.96-11.61-5.23,0-9.41,3.74-12.31,11.71Z"/>
      <path class="cls-2" d="m417.84,176.4h14.52l-29.54,81.17h23.68l-5.96,12.98h-36.97l34.27-94.15Z"/>
      <path class="cls-2" d="m451.39,270.55l12.14-33.35c.44-1.22.55-1.91.63-3.2l3.42-57.61h16.06c-1.79,15.29-3.86,32.84-6.15,43.09h.14c5.99-11.12,16.39-28.08,25.33-43.09h15.42l-39.34,58.85c-.39.69-.87,1.62-1.59,3.59l-11.54,31.72h-14.52Z"/>
    </g>
    <g>
      <path class="cls-2" d="m311.03,366.77l-12.46,25.19h-14.77l49.44-94.15h20.52l-18.52,94.15h-15.18l5.46-25.19h-14.48Zm17.63-13.35c3.67-15.99,7.13-31.17,9.93-41.81h-.53c-3.23,7.76-13.4,27.92-20.33,41.81h10.93Z"/>
      <path class="cls-2" d="m424.22,356.93c5.82-16,13.25-35.92,17.46-46.72h-.14c-8.11,16.34-27.2,54.48-41.2,81.74h-13.7c5.86-24.46,15.23-64.65,19.35-81.87h-.28c-3.71,10.98-11.03,32.28-16.92,48.47l-12.16,33.4h-13.16l34.27-94.15h21.63c-5.05,23.93-11.03,50.75-14.57,63.95h.14c6.4-13.36,21.69-41.37,33.68-63.95h20.91l-34.27,94.15h-13.79l12.75-35.03Z"/>
      <path class="cls-2" d="m519.92,356.93c5.82-16,13.25-35.92,17.46-46.72h-.14c-8.11,16.34-27.2,54.48-41.2,81.74h-13.7c5.86-24.46,15.23-64.65,19.35-81.87h-.28c-3.71,10.98-11.03,32.28-16.92,48.47l-12.16,33.4h-13.16l34.27-94.15h21.63c-5.05,23.93-11.03,50.75-14.57,63.95h.14c6.4-13.36,21.69-41.37,33.68-63.95h20.91l-34.27,94.15h-13.79l12.75-35.03Z"/>
      <path class="cls-2" d="m605.63,348.95h-20.7l-10.79,29.66h23.86l-6.7,13.35h-36.54l34.27-94.15h36.37l-4.91,13.48h-21.84l-8.85,24.31h20.7l-4.86,13.35Z"/>
      <path class="cls-2" d="m651.12,349.85l-15.32,42.1h-14.52l34.27-94.15h20.12c14.33,0,20.7,5.74,14.53,22.69l-1.31,3.58c-5.27,14.47-12.54,18.15-16.73,19.64,4.55,2.58,6.25,6.54,1.6,19.31-2.89,7.93-8.59,23.22-9.67,28.93h-14.03c.82-5.69,6.71-21.15,9.2-27.99,4.18-11.48,3.66-14.11-4.77-14.11h-3.37Zm4.36-11.99h3.33c7.68,0,11.56-2.9,15.29-13.14l1.17-3.23c2.65-7.28,2.76-11.71-5.47-11.71h-4.1l-10.22,28.07Z"/>
    </g>
  </g>
</svg>